G04 TOP COPPER*
%FSLAX46Y46*%
%MOMM*%
%LPD*%
%ADD10C,0.250*%
%ADD11C,1.200*%
%ADD12R,1.800X1.800*%
%ADD13C,0.150*%
G75*
G36*
X50000Y50000D02*
X380000Y50000D01*
X380000Y180000D01*
X50000Y180000D01*
X50000Y50000D01*
G37*
G36*
X50000Y520000D02*
X380000Y520000D01*
X380000Y650000D01*
X50000Y650000D01*
X50000Y520000D01*
G37*
G36*
X620000Y50000D02*
X950000Y50000D01*
X950000Y180000D01*
X620000Y180000D01*
X620000Y50000D01*
G37*
G36*
X620000Y520000D02*
X950000Y520000D01*
X950000Y650000D01*
X620000Y650000D01*
X620000Y520000D01*
G37*
D12*
X120000Y110000D03*
D12*
X120000Y590000D03*
D12*
X220000Y110000D03*
D12*
X220000Y590000D03*
D12*
X320000Y110000D03*
D12*
X320000Y590000D03*
D12*
X680000Y110000D03*
D12*
X680000Y590000D03*
D12*
X780000Y110000D03*
D12*
X780000Y590000D03*
D12*
X880000Y110000D03*
D12*
X880000Y590000D03*
D10*
X200000Y110000D02*
X200000Y280000D01*
X380000Y280000D01*
X440000Y350000D01*
X500000Y350000D01*
D10*
X200000Y590000D02*
X200000Y420000D01*
X380000Y420000D01*
X440000Y350000D01*
X500000Y350000D01*
D10*
X800000Y110000D02*
X800000Y280000D01*
X620000Y280000D01*
X560000Y350000D01*
X500000Y350000D01*
D10*
X800000Y590000D02*
X800000Y420000D01*
X620000Y420000D01*
X560000Y350000D01*
X500000Y350000D01*
D10*
X500000Y350000D02*
X500000Y200000D01*
X500000Y100000D01*
D11*
X500000Y100000D03*
M02*
